# File created by Blade
# Date/Time:  Thu Jan 22 19:18:24 2015
#---------------------------------------------------------
:version 1.10
:name HOM
:units
  mass 1.0
  length 1.000000
  angle deg
:documentation
     Acclaim Skeleton File
:root
   axis xyz
   order TX TY TZ RX RY RZ
   position 0.000000 0.000000 0.000000
   orientation 0 0 0
:bonedata
   begin
      id 1
      name RightUpLeg_dum
      direction -1.000000 0.000000 0.000000
      length 4.478084
      axis 0.0 0.0 0.0 xyz
   end
   begin
      id 2
      name LeftUpLeg_dum
      direction 1.000000 0.000000 0.000000
      length 4.478084
      axis 0.0 0.0 0.0 xyz
   end
   begin
      id 3
      name Spine_dum
      direction 0.000000 1.000000 0.000000
      length 6.068208
      axis 0.0 0.0 0.0 xyz
   end
   begin
      id 4
      name RightUpLeg
      direction 0.000000 -1.000000 0.000000
      length 16.405774
      axis 0.0 0.0 0.0 xyz
      dof rx ry rz
   end
   begin
      id 5
      name RightLeg
      direction 0.000000 -1.000000 0.000000
      length 14.644143
      axis 0.0 0.0 0.0 xyz
      dof rx ry rz
   end
   begin
      id 6
      name RightFoot
      direction 0.000000 -0.258819 0.965926
      length 5.806150
      axis 15.0 0.0 0.0 xyz
      dof rx ry rz
   end
   begin
      id 7
      name RightToeBase
      direction 0.000000 0.000000 1.000000
      length 2.952750
      axis 0.0 0.0 0.0 xyz
      dof rx ry rz
   end
   begin
      id 8
      name LeftUpLeg
      direction 0.000000 -1.000000 0.000000
      length 16.405774
      axis 0.0 0.0 0.0 xyz
      dof rx ry rz
   end
   begin
      id 9
      name LeftLeg
      direction 0.000000 -1.000000 0.000000
      length 14.644143
      axis 0.0 0.0 0.0 xyz
      dof rx ry rz
   end
   begin
      id 10
      name LeftFoot
      direction 0.000000 -0.258819 0.965926
      length 5.806150
      axis 15.0 0.0 0.0 xyz
      dof rx ry rz
   end
   begin
      id 11
      name LeftToeBase
      direction 0.000000 0.000000 1.000000
      length 2.952750
      axis 0.0 0.0 0.0 xyz
      dof rx ry rz
   end
   begin
      id 12
      name Spine
      direction 0.000000 1.000000 0.000000
      length 0.000000
      axis 0.0 0.0 0.0 xyz
      dof rx ry rz
   end
   begin
      id 13
      name Spine_dum1
      direction 0.000000 1.000000 0.000000
      length 10.013923
      axis 0.0 0.0 0.0 xyz
   end
   begin
      id 14
      name Spine_dum2
      direction 0.000000 1.000000 0.000000
      length 10.013923
      axis 0.0 0.0 0.0 xyz
   end
   begin
      id 15
      name Spine_dum3
      direction 0.000000 1.000000 0.000000
      length 15.777476
      axis 0.0 0.0 0.0 xyz
   end
   begin
      id 16
      name RightShoulder
      direction -1.000000 0.000000 0.000000
      length 7.190220
      axis 0.0 0.0 90.0 xyz
      dof rx ry rz
   end
   begin
      id 17
      name RightArm
      direction -1.000000 0.000000 0.000000
      length 10.177469
      axis 0.0 0.0 90.0 xyz
      dof rx ry rz
   end
   begin
      id 18
      name RightForeArm
      direction -1.000000 0.000000 0.000000
      length 8.392114
      axis 0.0 0.0 90.0 xyz
      dof ry rz rx
   end
   begin
      id 19
      name RightHand
      direction -1.000000 0.000000 0.000000
      length 0.000000
      axis 0.0 0.0 90.0 xyz
      dof rx ry rz
   end
   begin
      id 20
      name RightHand_dum1
      direction -1.000000 0.000000 0.000000
      length 3.937000
      axis 0.0 0.0 90.0 xyz
   end
   begin
      id 21
      name RightHand_dum2
      direction 0.000000 0.000000 0.000000
      length 0.000000
      axis 0.0 0.0 90.0 xyz
   end
   begin
      id 22
      name RightHandThumb1
      direction 0.000000 0.000000 1.000000
      length 3.937000
      axis 0.0 0.0 90.0 xyz
      dof rx rz ry
   end
   begin
      id 23
      name LeftShoulder
      direction 1.000000 0.000000 0.000000
      length 7.190220
      axis 0.0 0.0 -90.0 xyz
      dof rx ry rz
   end
   begin
      id 24
      name LeftArm
      direction 1.000000 0.000000 0.000000
      length 10.177469
      axis 0.0 0.0 -90.0 xyz
      dof rx ry rz
   end
   begin
      id 25
      name LeftForeArm
      direction 1.000000 0.000000 0.000000
      length 8.392114
      axis 0.0 0.0 -90.0 xyz
      dof ry rz rx
   end
   begin
      id 26
      name LeftHand
      direction 1.000000 0.000000 0.000000
      length 0.000000
      axis 0.0 0.0 -90.0 xyz
      dof rx ry rz
   end
   begin
      id 27
      name LeftHand_dum1
      direction 1.000000 0.000000 0.000000
      length 3.937000
      axis 0.0 0.0 -90.0 xyz
   end
   begin
      id 28
      name LeftHand_dum2
      direction 0.000000 0.000000 0.000000
      length 0.000000
      axis 0.0 0.0 -90.0 xyz
   end
   begin
      id 29
      name LeftHandThumb1
      direction 0.000000 0.000000 1.000000
      length 3.937000
      axis 0.0 0.0 -90.0 xyz
      dof rx rz ry
   end
   begin
      id 30
      name Head
      direction 0.000000 1.000000 0.000000
      length 4.527550
      axis 0.0 0.0 0.0 xyz
      dof rx ry rz
   end
:hierarchy
   begin
      root RightUpLeg_dum LeftUpLeg_dum Spine_dum
      RightUpLeg_dum RightUpLeg
      LeftUpLeg_dum LeftUpLeg
      Spine_dum Spine
      RightUpLeg RightLeg
      RightLeg RightFoot
      RightFoot RightToeBase
      LeftUpLeg LeftLeg
      LeftLeg LeftFoot
      LeftFoot LeftToeBase
      Spine Spine_dum1 Spine_dum2 Spine_dum3
      Spine_dum1 RightShoulder
      Spine_dum2 LeftShoulder
      Spine_dum3 Head
      RightShoulder RightArm
      RightArm RightForeArm
      RightForeArm RightHand
      RightHand RightHand_dum1 RightHand_dum2
      RightHand_dum2 RightHandThumb1
      LeftShoulder LeftArm
      LeftArm LeftForeArm
      LeftForeArm LeftHand
      LeftHand LeftHand_dum1 LeftHand_dum2
      LeftHand_dum2 LeftHandThumb1
   end

# File created by Blade
# Date/Time:  Thu Jan 22 19:18:16 2015
# Frame Rate: 120.000 fps
#------------------------------------------------------
:FULLY-SPECIFIED
:DEGREES
1
root -1.307487 33.062850 -0.701313 8.056123 -3.104419 2.302052
RightUpLeg -2.561401 -8.650348 -4.736465
RightLeg -0.376620 -0.000000 0.000000
RightFoot -10.411043 -2.959896 6.257297
RightToeBase 6.167404 -0.000000 -0.000000
LeftUpLeg -2.115121 7.174223 4.846163
LeftLeg 1.178635 -0.000000 -0.000000
LeftFoot -9.184246 0.796279 -20.039323
LeftToeBase 8.274047 -0.000000 -0.000000
Spine -8.965220 -2.473365 -1.982201
RightShoulder -18.656428 -10.257355 -25.167113
RightArm 23.779498 27.926430 39.746700
RightForeArm -15.743897 -0.000000 9.945524
RightHand 11.296817 -0.000000 8.599352
RightHandThumb1 -24.326973 -0.000000 -32.862282
LeftShoulder -23.581255 5.211665 31.105967
LeftArm 16.426093 -29.751341 -33.310247
LeftForeArm 23.868567 -0.000000 0.326159
LeftHand -2.649072 -0.000000 -7.798717
LeftHandThumb1 -26.253704 0.000000 33.147579
Head -1.852487 2.968780 3.032240
2
root -1.309615 33.062285 -0.699968 8.037314 -3.076453 2.290446
RightUpLeg -2.541020 -8.661827 -4.722087
RightLeg -0.358039 -0.000000 0.000000
RightFoot -10.426764 -2.958781 6.293035
RightToeBase 6.197928 -0.000000 -0.000000
LeftUpLeg -2.106927 7.181806 4.866246
LeftLeg 1.195382 -0.000000 -0.000000
LeftFoot -9.189518 0.758043 -20.034764
LeftToeBase 8.294721 -0.000000 -0.000000
Spine -8.933043 -2.503001 -1.947920
RightShoulder -18.673241 -10.258154 -25.225194
RightArm 23.810786 27.875452 39.695177
RightForeArm -15.599518 0.000000 9.932803
RightHand 11.180371 -0.000000 8.817735
RightHandThumb1 -24.326973 -0.000000 -32.862282
LeftShoulder -23.586755 5.219208 31.095722
LeftArm 16.415343 -29.736713 -33.274539
LeftForeArm 23.895195 -0.000000 0.324211
LeftHand -2.687634 -0.000000 -7.740233
LeftHandThumb1 -26.253704 0.000000 33.147579
Head -1.876766 3.025582 2.974051
3
root -1.307727 33.062165 -0.699657 8.026906 -3.056427 2.306968
RightUpLeg -2.529646 -8.664424 -4.743667
RightLeg -0.347546 -0.000000 0.000000
RightFoot -10.453464 -2.967878 6.315153
RightToeBase 6.207486 -0.000000 -0.000000
LeftUpLeg -2.103429 7.166896 4.849768
LeftLeg 1.199063 -0.000000 -0.000000
LeftFoot -9.186705 0.748076 -20.042315
LeftToeBase 8.326849 -0.000000 -0.000000
Spine -8.921046 -2.519069 -1.927198
RightShoulder -18.665300 -10.286719 -25.248701
RightArm 23.839800 27.922835 39.596917
RightForeArm -15.617272 -0.000000 9.895165
RightHand 11.316998 -0.000000 8.706932
RightHandThumb1 -24.326973 -0.000000 -32.862282
LeftShoulder -23.564387 5.229126 31.050291
LeftArm 16.410203 -29.743900 -33.238115
LeftForeArm 23.918490 -0.000000 0.296991
LeftHand -2.716635 0.000000 -7.804921
LeftHandThumb1 -26.253704 0.000000 33.147579
Head -1.860858 3.078099 2.881686
4
root -1.308187 33.062033 -0.699833 8.028252 -3.023923 2.304258
RightUpLeg -2.532646 -8.677391 -4.737316
RightLeg -0.325804 -0.000000 0.000000
RightFoot -10.459062 -2.985359 6.287769
RightToeBase 6.131938 -0.000000 -0.000000
LeftUpLeg -2.121112 7.156398 4.856117
LeftLeg 1.218581 -0.000000 -0.000000
LeftFoot -9.184078 0.731975 -20.034676
LeftToeBase 8.290647 -0.000000 -0.000000
Spine -8.923798 -2.560561 -1.876446
RightShoulder -18.642365 -10.292478 -25.315150
RightArm 23.843373 27.944219 39.549338
RightForeArm -15.569076 -0.000000 9.914907
RightHand 11.317490 -0.000000 8.826537
RightHandThumb1 -24.326973 -0.000000 -32.862282
LeftShoulder -23.549109 5.212210 31.001684
LeftArm 16.377392 -29.745072 -33.194077
LeftForeArm 23.968327 -0.000000 0.263910
LeftHand -2.731135 -0.000000 -7.842970
LeftHandThumb1 -26.253704 0.000000 33.147579
Head -1.845777 3.236556 2.819744
5
root -1.307453 33.061306 -0.699704 8.029989 -2.998932 2.313107
RightUpLeg -2.529782 -8.656835 -4.747279
RightLeg -0.319368 -0.000000 0.000000
RightFoot -10.488505 -3.032934 6.284059
RightToeBase 6.185648 -0.000000 -0.000000
LeftUpLeg -2.133527 7.134101 4.848391
LeftLeg 1.228787 -0.000000 -0.000000
LeftFoot -9.195045 0.722708 -20.047301
LeftToeBase 8.361977 -0.000000 -0.000000
Spine -8.925762 -2.602939 -1.845655
RightShoulder -18.638388 -10.326760 -25.375366
RightArm 23.918419 27.947132 39.530825
RightForeArm -15.506883 0.000000 9.932670
RightHand 11.122516 0.000000 9.069825
RightHandThumb1 -24.326973 -0.000000 -32.862282
LeftShoulder -23.563131 5.230146 30.960735
LeftArm 16.397991 -29.790378 -33.214780
LeftForeArm 24.014172 -0.000000 0.226851
LeftHand -2.792837 -0.000000 -7.865745
LeftHandThumb1 -26.253704 0.000000 33.147579
Head -1.834540 3.300083 2.759181
6
root -1.306486 33.061567 -0.699420 8.028013 -2.981034 2.323624
RightUpLeg -2.520554 -8.625885 -4.759851
RightLeg -0.325701 -0.000000 0.000000
RightFoot -10.493021 -3.081918 6.302023
RightToeBase 6.178886 -0.000000 -0.000000
LeftUpLeg -2.136994 7.138450 4.839290
LeftLeg 1.231584 -0.000000 -0.000000
LeftFoot -9.180754 0.695837 -20.049636
LeftToeBase 8.389947 -0.000000 -0.000000
Spine -8.919191 -2.622655 -1.828157
RightShoulder -18.632093 -10.317104 -25.419975
RightArm 23.920683 27.940124 39.462126
RightForeArm -15.451970 -0.000000 9.921772
RightHand 11.159925 0.000000 8.960905
RightHandThumb1 -24.326973 -0.000000 -32.862282
LeftShoulder -23.573181 5.225950 30.932775
LeftArm 16.424756 -29.831360 -33.261448
LeftForeArm 24.093699 -0.000000 0.197969
LeftHand -2.831143 -0.000000 -8.032785
LeftHandThumb1 -26.253704 0.000000 33.147579
Head -1.834625 3.353693 2.709518
7
root -1.306148 33.061398 -0.699306 8.030284 -2.948450 2.332969
RightUpLeg -2.512196 -8.623066 -4.767017
RightLeg -0.329953 -0.000000 0.000000
RightFoot -10.503284 -3.113166 6.327478
RightToeBase 6.199336 -0.000000 -0.000000
LeftUpLeg -2.149782 7.125347 4.833675
LeftLeg 1.235926 -0.000000 -0.000000
LeftFoot -9.169070 0.677362 -20.055669
LeftToeBase 8.378580 -0.000000 -0.000000
Spine -8.917822 -2.649718 -1.815488
RightShoulder -18.628656 -10.321663 -25.458398
RightArm 23.925162 27.925663 39.408824
RightForeArm -15.341136 -0.000000 9.911457
RightHand 11.150997 -0.000000 9.111184
RightHandThumb1 -24.326973 -0.000000 -32.862282
LeftShoulder -23.571905 5.199626 30.924270
LeftArm 16.439573 -29.883359 -33.321423
LeftForeArm 24.239411 0.000000 0.167196
LeftHand -2.878357 -0.000000 -8.290736
LeftHandThumb1 -26.253704 0.000000 33.147579
Head -1.825334 3.288204 2.651248
8
root -1.305830 33.061228 -0.699024 8.038017 -2.920948 2.333817
RightUpLeg -2.509288 -8.617502 -4.767042
RightLeg -0.335536 -0.000000 0.000000
RightFoot -10.516963 -3.143031 6.319394
RightToeBase 6.209225 -0.000000 -0.000000
LeftUpLeg -2.165026 7.117382 4.834962
LeftLeg 1.234630 -0.000000 -0.000000
LeftFoot -9.182549 0.679211 -19.978470
LeftToeBase 8.471150 -0.000000 -0.000000
Spine -8.925737 -2.678431 -1.780697
RightShoulder -18.624868 -10.325571 -25.540886
RightArm 23.943534 27.940607 39.432795
RightForeArm -15.332604 -0.000000 9.919498
RightHand 11.172505 0.000000 8.995248
RightHandThumb1 -24.326973 -0.000000 -32.862282
LeftShoulder -23.562053 5.156582 30.905583
LeftArm 16.420464 -29.895681 -33.351957
LeftForeArm 24.330496 -0.000000 0.126264
LeftHand -2.947564 -0.000000 -8.423393
LeftHandThumb1 -26.253704 0.000000 33.147579
Head -1.831386 3.396106 2.630940
9
root -1.306484 33.061632 -0.698991 8.038732 -2.903161 2.341621
RightUpLeg -2.498243 -8.595997 -4.774185
RightLeg -0.349568 -0.000000 0.000000
RightFoot -10.512146 -3.172875 6.339200
RightToeBase 6.196369 -0.000000 -0.000000
LeftUpLeg -2.170679 7.120269 4.831262
LeftLeg 1.239723 -0.000000 -0.000000
LeftFoot -9.150695 0.629039 -20.080284
LeftToeBase 8.383768 -0.000000 -0.000000
Spine -8.924794 -2.694727 -1.780524
RightShoulder -18.600120 -10.320765 -25.562359
RightArm 23.925092 27.926124 39.375729
RightForeArm -15.275965 -0.000000 9.942094
RightHand 11.134628 0.000000 8.951158
RightHandThumb1 -24.326973 -0.000000 -32.862282
LeftShoulder -23.554297 5.131072 30.911901
LeftArm 16.424646 -29.918052 -33.414410
LeftForeArm 24.484563 -0.000000 0.079590
LeftHand -2.910953 -0.000000 -8.603894
LeftHandThumb1 -26.253704 0.000000 33.147579
Head -1.815276 3.318494 2.601673
